<svg width="256" height="254" viewBox="0 0 256 254" fill="none" xmlns="http://www.w3.org/2000/svg">
<path d="M127.507 182.948C85.3572 226.646 58.0764 216.148 58.0764 216.148C81.4793 237.327 106.524 243.764 106.524 243.764C123.912 240.384 147.61 206.456 147.61 206.456C159.853 182.758 165.363 191.168 165.363 191.168C169.929 193.517 157.686 217.216 157.686 217.216C144.672 237.375 126.334 251.679 126.334 251.679C138.141 255.03 164.217 252.614 164.217 252.614C211.919 256.246 223.273 207.844 223.273 207.844C231.927 189.715 222.365 180.048 222.365 180.048C194.406 163.379 199.152 149.119 199.152 149.119C204.598 144.122 210.264 149.815 210.264 149.815C225.313 159.127 234.382 158.9 234.382 158.9C252.448 160.424 269.607 139.495 269.607 139.495C270.877 131.401 267.27 124.518 266.955 117.533C266.566 108.921 269.668 96.0478 267.655 89.1064C264.935 79.6712 259.654 74.7145 255.847 68.5204C248.836 57.0696 242.835 52.7247 242.835 52.7247C243.709 68.7778 239.363 86.3417 239.363 86.3417C222.652 133.913 206.123 123.248 206.123 123.248C204.492 118.254 210.059 112.426 210.059 112.426C243.544 72.4539 226.848 34.9318 226.848 34.9318C208.965 19.3316 181.222 7.34979 181.222 7.34979C181.222 7.34979 181.529 7.80677 181.837 8.26376C199.535 35.2687 189.147 90.8145 189.147 90.8145C185.501 111.558 178.083 107.978 178.083 107.978C170.942 104.595 177.535 90.6 177.535 90.6C185.857 53.8328 164.456 10.0222 164.456 10.0222C134.637 -1.93375 109.117 1.06897 109.117 1.06897C127.739 11.4674 139.113 58.4976 139.113 58.4976C152.32 83.2391 143.951 98.0716 143.951 98.0716C132.934 100.69 129.003 83.5701 129.003 83.5701C124.642 39.4298 88.2206 8.61972 88.2206 8.61972C75.9557 15.735 65.3554 20.9483 56.2827 24.726C67.6392 30.0386 81.9261 38.5959 89.6272 50.4415C89.6272 50.4415 103.069 71.6731 94.4423 76.2402C94.4423 76.2402 84.2044 77.0326 64.5527 42.8079C64.5527 42.8079 61.2027 33.9665 52.2006 26.3478C19.8689 38.933 8.40606 32.4754 8.40606 32.4754C19.5374 41.2743 11.9549 90.6801 11.9549 90.6801C33.6726 100.647 63.9168 97.4712 63.9168 97.4712C87.6041 92.502 88.2438 104.246 88.2438 104.246C89.7396 114.113 76.512 116.95 76.512 116.95C29.8966 119.3 0.382615 96.1811 0.382615 96.1811C-1.73523 123.17 8.44873 139.48 8.44873 139.48C54.65 161.188 81.6804 147.437 81.6804 147.437C90.6665 141.063 107.992 134.629 107.992 134.629C120.65 128.832 126.744 138.831 126.744 138.831C123.69 152.055 99.2758 158.789 99.2758 158.789C56.2661 171.765 11.5887 158.119 11.5887 158.119C18.4767 183.23 39.7148 201.177 39.7148 201.177C69.3628 213.613 90.4913 196.88 90.4913 196.88C120.437 175.52 138.403 170.671 138.403 170.671C147.018 169.541 127.489 182.858 127.489 182.858L127.507 182.948Z" fill="#EBEADA"/>
<path d="M151.293 123.15C163.038 127.989 174.258 133.631 185.318 139.73C196.345 145.842 207.083 152.524 217.411 159.864C227.74 167.203 237.67 175.176 246.929 183.975C251.564 188.362 255.978 193.017 260.211 197.845C264.434 202.696 268.38 207.818 272.088 213.118L263.188 218.949C259.941 213.867 256.452 208.905 252.668 204.125C248.831 199.405 244.851 194.764 240.581 190.362C232.073 181.543 222.779 173.363 213.015 165.789C203.251 158.214 192.991 151.178 182.417 144.701C171.843 138.224 160.9 132.174 149.699 126.953L151.28 123.116L151.293 123.15Z" fill="#EBEADA"/>
</svg>
